<?xml version="1.0" encoding="UTF-8"?>
<svg id="Calque_1" data-name="Calque 1" xmlns="http://www.w3.org/2000/svg" viewBox="0 0 296.33 76.29">
  <defs>
    <style>
      .cls-1 {
        fill: #e9473f;
      }
    </style>
  </defs>
  <path class="cls-1" d="M200.79,42.22c.08.33.17.66.26.98,8.72.08,17.52,2.21,26.03,4.26,2.72.65,5.46,1.32,8.22,1.92,2.11-2.79,3.17-6.09,3.17-9.89V14.09h-11.94v23.19c0,.71-.05,1.37-.15,1.98-.1.61-.25,1.17-.46,1.67s-.46.98-.76,1.41c-.3.43-.65.81-1.03,1.14-.38.33-.81.59-1.29.8-.48.2-1,.37-1.56.5s-1.17.19-1.83.19c-2.33,0-4.21-.69-5.63-2.09-1.42-1.39-2.13-3.36-2.13-5.9V14.09h-11.79l.08,20.91c0,2.64.26,5.04.8,7.22Z"/>
  <path class="cls-1" d="M249.9,51.52c.85.05,1.7.07,2.55.07,8.53,0,17.27-2.1,25.73-4.13,1.6-.39,3.22-.77,4.84-1.15l-10.02-5.16c0,.05-.11.23-.3.53-.21.3-.55.7-1.03,1.18-.48.48-1.02.95-1.63,1.4-.61.46-1.37.84-2.28,1.14-.91.3-1.86.43-2.81.38-1.17-.05-2.25-.23-3.23-.53-.99-.3-1.89-.72-2.7-1.25-.82-.53-1.49-1.23-2.02-2.09-.53-.86-.85-1.83-.95-2.89l29.12.08c.25-2.94.09-5.66-.5-8.17-.58-2.51-1.5-4.69-2.74-6.54-1.24-1.85-2.74-3.45-4.49-4.79s-3.73-2.35-5.93-3.01c-2.21-.66-4.52-.99-6.96-.99-6.95,0-12.39,2.33-16.35,7-3.15,3.65-4.71,8.11-4.71,13.38,0,6.52,2.14,11.7,6.41,15.53ZM264.47,25.27c2.43,0,4.42.38,5.97,1.14,1.55.76,2.37,1.83,2.47,3.19h-16.73c1.17-2.89,3.92-4.33,8.29-4.33Z"/>
  <path class="cls-1" d="M57.91,19.33c-3.42-3.14-7.42-4.71-11.98-4.71-1.37,0-2.74.14-4.11.42-1.37.28-2.69.68-3.95,1.22-1.27.53-2.42,1.23-3.46,2.09-1.04.86-1.87,1.85-2.47,2.97-1.12-2.23-2.86-3.96-5.25-5.21-2.38-1.24-5.02-1.87-7.91-1.87-1.72,0-3.28.09-4.67.27-1.4.18-3,.64-4.79,1.4-1.8.76-3.31,1.81-4.53,3.16-1.22,1.34-2.3,3.25-3.23,5.74-.94,2.48-1.46,5.45-1.56,8.9l.08,23.19h11.41v-23.34c0-1.27.18-2.38.53-3.35.35-.96.85-1.73,1.49-2.32.63-.58,1.39-1.03,2.28-1.33.88-.3,1.89-.46,3-.46,2.18,0,3.83.61,4.94,1.82,1.12,1.22,1.67,3.09,1.67,5.63v23.19l12.17.15v-23.34c0-4.97,2.28-7.45,6.84-7.45,2.18.05,3.87.71,5.06,1.98,1.19,1.27,1.78,3.09,1.78,5.48l.15,23.34h11.63v-25.7c0-4.77-1.71-8.72-5.13-11.86Z"/>
  <polygon class="cls-1" points="90.57 35.3 90.49 35.53 89.1 39.51 79.08 15.99 65.78 15.99 83.43 55.76 76.27 76.29 88.97 76.14 93.9 61.26 93.91 61.23 108.89 16.37 97.03 16.22 90.57 35.3"/>
  <path class="cls-1" d="M175.35,26.03c-.81-1.57-1.81-3.02-3.01-4.33-1.19-1.32-2.49-2.44-3.91-3.38-1.42-.94-2.99-1.69-4.71-2.25-1.72-.56-3.52-.84-5.4-.84-1.42,0-2.86.1-4.33.3-1.47.2-2.89.5-4.26.88-1.37.38-2.59.87-3.65,1.48s-1.8,1.29-2.21,2.05V.17h-12.39l.08,34.83c.66,7.6,3.2,13.33,7.64,17.19,4.44,3.85,10.43,5.7,17.99,5.55,5.58-.15,10.39-2.33,14.45-6.54,4.06-4.21,6.13-9.13,6.24-14.75,0-1.82-.22-3.62-.65-5.4-.43-1.77-1.05-3.45-1.86-5.02ZM163.41,43.18c-2.03,1.9-4.6,2.85-7.72,2.85s-5.68-.95-7.68-2.85c-2-1.9-3-4.3-3-7.19,0-1.93.46-3.65,1.37-5.17.91-1.52,2.18-2.72,3.8-3.61,1.62-.89,3.47-1.33,5.55-1.33,3.09,0,5.65.95,7.68,2.85s3.04,4.31,3.04,7.22-1.01,5.32-3.04,7.22Z"/>
  <path class="cls-1" d="M295.86,51.29c-.63-1.6-1.8-2.8-3.12-3.36-.5-.22-1.02-.34-1.54-.36-.52-.02-1.04.06-1.53.25-.05.02-.1.04-.15.07-.04.02-.08.04-.12.07l-.37.2s0,0,0,0c-6.12,3.06-27.79,7.66-39,7.8-16.68.22-40.33-10.74-55.76-7.78l-.23-48.18h-11.76l.45,61.51c22.47-8.5,44.93,5.69,67.4,5.69,10.05,0,30.78-5.7,42.5-8.88.09-.03.17-.05.25-.07.37-.1.73-.19,1.08-.29.78-.37,1.39-1,1.8-1.78.1-.2.19-.4.27-.61.23-.64.33-1.35.31-2.09-.03-.71-.18-1.45-.46-2.18Z"/>
</svg>