<?xml version="1.0" encoding="UTF-8"?>
<svg id="Calque_1" data-name="Calque 1" xmlns="http://www.w3.org/2000/svg" viewBox="0 0 64 64">
  <defs>
    <style>
      .cls-1 {
        fill: #e9473f;
      }
    </style>
  </defs>
  <path class="cls-1" d="M35.88,30.25v8.66c-.77-.24-1.54-.5-2.31-.75-.41-.14-.82-.27-1.23-.41-.91-1.34-1.5-2.99-1.79-4.94v-1.5c0-.41-.05-.79-.13-1.13,0,0,0,0,0,0-.13-.54-.36-.99-.69-1.34-.54-.57-1.3-.87-2.29-.89-2.06,0-3.1,1.12-3.1,3.37v10.57l-4.94-.06h-.57v-10.5c0-.5-.05-.94-.14-1.33h0c-.12-.5-.33-.91-.61-1.22-.5-.55-1.25-.83-2.24-.83-.5,0-.96.07-1.36.21-.4.14-.75.34-1.03.6-.29.26-.51.61-.67,1.05-.16.44-.24.94-.24,1.51v10.57h-5.16l-.03-10.5c.05-1.56.28-2.9.71-4.03.42-1.12.91-1.99,1.46-2.6.55-.61,1.23-1.09,2.05-1.43.81-.34,1.53-.56,2.17-.64.63-.08,1.34-.12,2.12-.12,1,0,1.94.17,2.81.5.22.08.45.18.66.29.04.02.07.03.11.05,1.08.56,1.87,1.35,2.37,2.36.2-.37.46-.72.77-1.03.11-.11.22-.22.35-.32.06-.05.13-.1.19-.15.42-.32.88-.58,1.37-.79.57-.24,1.17-.42,1.79-.55.62-.13,1.24-.19,1.86-.19.8,0,1.55.11,2.27.32h0c1.15.33,2.2.94,3.15,1.81,1.55,1.42,2.32,3.21,2.32,5.37Z"/>
  <path class="cls-1" d="M51.21,30.64c-.2-.8-.48-1.56-.85-2.27-.37-.71-.83-1.37-1.37-1.96-.54-.6-1.14-1.11-1.78-1.53-.65-.42-1.36-.76-2.15-1.02-.78-.25-1.6-.38-2.46-.38-.65,0-1.31.05-1.97.14-.67.09-1.32.22-1.94.4-.62.17-1.18.39-1.66.67s-.82.59-1,.93v-8.95h-5.64v6.4s.02.69.02.69v6.43s.02,0,.02,0c.08.34.12.72.12,1.13v1.5c.3,1.95.89,3.6,1.8,4.94.41.13.82.27,1.23.41.77.26,1.54.52,2.31.75,1.86.58,3.66,1.03,5.17,1.03h.14c1.55-.03,4.01-.48,6.58-1.22.82-.23,1.6-.48,2.3-.73.93-1.48,1.41-3.11,1.45-4.91,0-.83-.1-1.64-.3-2.44ZM44.93,36.13c-.92.86-2.1,1.29-3.52,1.29s-2.59-.43-3.5-1.29c-.91-.86-1.37-1.95-1.37-3.25,0-.87.21-1.65.62-2.34.42-.69.99-1.23,1.73-1.63.74-.4,1.58-.6,2.53-.6,1.41,0,2.57.43,3.5,1.29.92.86,1.38,1.95,1.38,3.27s-.46,2.41-1.38,3.27Z"/>
  <path class="cls-1" d="M56.65,41.12c0,.33-.03.65-.1.94-.03.1-.06.19-.09.28-.14.35-.34.64-.6.81-.12.04-.24.09-.36.13-.03,0-.05.02-.08.03-3.91,1.44-10.82,4.02-14.17,4.02-2.54,0-5.09-.74-7.64-1.57-.16-.05-.31-.1-.47-.15-.18-.06-.36-.12-.54-.18-.18-.06-.36-.12-.54-.18-1.08-.36-2.16-.7-3.24-.99-.18-.05-.36-.09-.54-.14-1.44-.36-2.88-.59-4.32-.59-.54,0-1.08.03-1.62.11-.11.01-.21.03-.32.05-.32.05-.65.12-.97.21-.22.06-.43.12-.65.19-.21.07-.43.15-.65.23-.32.13-.65.28-.97.44v-2.01s-.08-11.83-.08-11.83h0s-.03-6.62-.03-6.62v-.29c.22.08.44.18.66.29.04.02.07.03.11.05,1.08.56,1.87,1.35,2.37,2.36.2-.37.46-.72.77-1.03l.05,13.05c.39-.1.8-.17,1.23-.2.17-.01.33-.02.5-.02.07,0,.15,0,.22,0,2.51,0,5.43.95,8.34,1.9.07.02.14.04.21.07.33.11.67.22,1,.32.03,0,.05.02.08.03.27.08.54.17.81.25.24.08.48.15.72.22.28.08.55.16.82.23.17.05.34.09.5.13.04,0,.08.02.12.03.14.04.29.07.43.11.03,0,.06.01.08.02.25.06.5.11.75.16.02,0,.05.01.07.01.14.03.27.05.4.07.28.05.56.09.84.12.14.02.27.03.41.04.14.01.27.02.4.03.02,0,.04,0,.06,0,.18,0,.36.01.54,0h.07c1.96-.03,4.87-.62,7.49-1.37,2.39-.68,4.54-1.5,5.52-2.16l.12-.09s.03-.02.04-.03c.02-.01.03-.02.05-.03.08-.04.15-.07.22-.09.04,0,.08-.02.13-.02.02,0,.05,0,.07,0,.03,0,.06,0,.09,0,.17.01.35.07.51.17.44.25.83.8,1.04,1.52.09.33.14.66.15.99Z"/>
</svg>